<svg fill="none" height="50" viewBox="0 0 94 50" width="94" xmlns="http://www.w3.org/2000/svg">
    <path
        d="M30.0608 44.2623C29.8816 44.1442 29.6981 44.0577 29.5167 44.0029C29.3332 43.9481 29.1898 43.9122 29.0886 43.8911C28.7427 43.8026 28.4643 43.7309 28.2513 43.6739C28.0383 43.617 27.8696 43.56 27.7494 43.5031C27.6292 43.4461 27.5469 43.385 27.5068 43.3175C27.4647 43.25 27.4457 43.1635 27.4457 43.0539C27.4457 42.9358 27.471 42.8366 27.5237 42.7607C27.5743 42.6827 27.6418 42.6194 27.7198 42.5667C27.8 42.5161 27.8886 42.4781 27.9877 42.4591C28.0847 42.438 28.1838 42.4275 28.2808 42.4275C28.4306 42.4275 28.5677 42.4401 28.6942 42.4655C28.8207 42.4908 28.9325 42.5351 29.0295 42.5962C29.1265 42.6574 29.2067 42.7438 29.2657 42.8514C29.3248 42.959 29.3585 43.096 29.3691 43.2605H30.5438C30.5438 42.9421 30.4826 42.67 30.3624 42.4444C30.2422 42.2208 30.0777 42.0352 29.871 41.8918C29.6643 41.7484 29.4302 41.6429 29.1645 41.5797C28.8988 41.5143 28.6225 41.4827 28.3336 41.4827C28.0868 41.4827 27.8401 41.5164 27.5912 41.5839C27.3444 41.6514 27.123 41.7547 26.9269 41.8939C26.7307 42.0331 26.5726 42.2061 26.4523 42.4148C26.3321 42.6236 26.271 42.8704 26.271 43.153C26.271 43.4061 26.3195 43.6212 26.4144 43.7983C26.5093 43.9755 26.6337 44.1252 26.7898 44.2433C26.9437 44.3614 27.1188 44.4585 27.3149 44.5323C27.5111 44.6061 27.7114 44.6694 27.9181 44.7221C28.1184 44.779 28.3167 44.8296 28.5128 44.876C28.709 44.9224 28.884 44.9773 29.038 45.0384C29.1919 45.0996 29.3164 45.1776 29.4134 45.2704C29.5083 45.3632 29.5568 45.4834 29.5568 45.6332C29.5568 45.7724 29.5209 45.8862 29.4492 45.9769C29.3775 46.0676 29.2868 46.1372 29.1793 46.1899C29.0717 46.2406 28.9557 46.2764 28.8313 46.2954C28.7069 46.3144 28.5909 46.3228 28.4833 46.3228C28.323 46.3228 28.1691 46.3038 28.0193 46.2659C27.8696 46.2279 27.7388 46.1689 27.6292 46.0887C27.5195 46.0086 27.4288 45.9052 27.3634 45.7766C27.2959 45.6479 27.2622 45.4898 27.2622 45.3042H26.0875C26.0833 45.6437 26.1444 45.9369 26.2731 46.1857C26.4017 46.4325 26.5747 46.6371 26.794 46.7973C27.0133 46.9576 27.2643 47.0736 27.5511 47.1495C27.838 47.2234 28.1311 47.2613 28.4369 47.2613C28.8123 47.2613 29.1434 47.217 29.4302 47.1306C29.7171 47.042 29.9554 46.9218 30.1494 46.7636C30.3434 46.6054 30.489 46.4198 30.586 46.2026C30.683 45.9854 30.7336 45.7513 30.7336 45.4982C30.7336 45.1882 30.6682 44.9351 30.5375 44.7368C30.4067 44.5386 30.2506 44.3804 30.0693 44.2623H30.0608Z"
        fill="white" />
    <path d="M38.7922 42.6384H40.4478V47.1369H41.6605V42.6384H43.3139V41.6177H38.7922V42.6384Z"
        fill="white" />
    <path
        d="M55.2001 45.049C55.2001 45.4603 55.1179 45.764 54.9534 45.958C54.7889 46.152 54.4894 46.2469 54.057 46.2469C53.8103 46.2469 53.612 46.2111 53.4665 46.1415C53.3189 46.0719 53.205 45.9812 53.1227 45.8715C53.0405 45.7597 52.9857 45.6332 52.9603 45.4898C52.935 45.3464 52.9224 45.1987 52.9224 45.049V41.6177H51.7097V45.049C51.7097 45.8019 51.9143 46.3587 52.3234 46.7172C52.7326 47.0779 53.3104 47.2592 54.0591 47.2592C54.8078 47.2592 55.373 47.0779 55.7906 46.7151C56.2082 46.3524 56.417 45.7977 56.417 45.049V41.6177H55.2043V45.049H55.2001Z"
        fill="white" />
    <path
        d="M69.4086 42.2989C69.1851 42.0732 68.9193 41.9024 68.6135 41.7885C68.3077 41.6746 67.9766 41.6177 67.6202 41.6177H65.2391V47.1348H67.6202C68.042 47.1348 68.409 47.0631 68.7211 46.9218C69.0332 46.7805 69.2926 46.5865 69.5014 46.3376C69.7102 46.0909 69.8663 45.7956 69.9696 45.456C70.073 45.1165 70.1236 44.7453 70.1236 44.3425C70.1236 43.8848 70.0603 43.4841 69.9338 43.1446C69.8072 42.805 69.6322 42.5203 69.4086 42.2947V42.2989ZM68.7949 45.2346C68.7169 45.4455 68.6156 45.6163 68.4849 45.7492C68.3562 45.88 68.2086 45.9749 68.0441 46.0318C67.8796 46.0887 67.7088 46.1162 67.5337 46.1162H66.4518V42.6384H67.3165C67.616 42.6384 67.8669 42.6806 68.0694 42.765C68.2719 42.8493 68.4364 42.9716 68.5608 43.1319C68.6852 43.2922 68.7738 43.4841 68.8265 43.7077C68.8814 43.9312 68.9067 44.1822 68.9067 44.4606C68.9067 44.7643 68.8687 45.0216 68.7907 45.2325L68.7949 45.2346Z"
        fill="white" />
    <path d="M79.9595 41.6177H78.7468V47.1348H79.9595V41.6177Z" fill="white" />
    <path
        d="M93.2781 42.3305C93.0461 42.0669 92.7635 41.8623 92.4282 41.7126C92.0928 41.5628 91.7111 41.489 91.2851 41.489C90.8591 41.489 90.4816 41.5628 90.1441 41.7126C89.8067 41.8623 89.522 42.069 89.29 42.3305C89.058 42.5941 88.8808 42.902 88.7564 43.2542C88.632 43.6064 88.5708 43.9903 88.5708 44.4015C88.5708 44.8128 88.632 45.1776 88.7564 45.5256C88.8808 45.8736 89.058 46.1752 89.29 46.4346C89.522 46.694 89.8067 46.8944 90.1441 47.042C90.4816 47.1896 90.8612 47.2613 91.2851 47.2613C91.709 47.2613 92.0928 47.1875 92.4282 47.042C92.7635 46.8944 93.0461 46.694 93.2781 46.4346C93.5101 46.1773 93.6872 45.8736 93.8117 45.5256C93.9361 45.1776 93.9972 44.8022 93.9972 44.4015C93.9972 44.0008 93.9361 43.6064 93.8117 43.2542C93.6872 42.902 93.5101 42.5941 93.2781 42.3305ZM92.7023 45.0785C92.6475 45.2979 92.561 45.494 92.4429 45.669C92.3248 45.8441 92.1709 45.9854 91.9789 46.0908C91.787 46.1963 91.5571 46.249 91.283 46.249C91.0088 46.249 90.7768 46.1963 90.587 46.0908C90.3972 45.9854 90.2411 45.8441 90.123 45.669C90.0049 45.494 89.9185 45.2979 89.8636 45.0785C89.8088 44.8592 89.7835 44.6335 89.7835 44.4015C89.7835 44.1695 89.8109 43.9249 89.8636 43.6992C89.9185 43.4736 90.0049 43.2711 90.123 43.0918C90.2411 42.9147 90.3951 42.7734 90.587 42.6658C90.7768 42.5604 91.0088 42.5077 91.283 42.5077C91.5571 42.5077 91.787 42.5604 91.9789 42.6658C92.1709 42.7713 92.3248 42.9126 92.4429 43.0918C92.561 43.269 92.6475 43.4715 92.7023 43.6992C92.7572 43.927 92.7825 44.1611 92.7825 44.4015C92.7825 44.642 92.755 44.8592 92.7023 45.0785Z"
        fill="white" />
    <path
        d="M10.6647 12.5154C4.78473 12.5154 0 17.298 0 23.1801C0 29.0622 4.78473 33.8448 10.6647 33.8448C16.5447 33.8448 21.3294 29.0601 21.3294 23.1801C21.3294 17.3001 16.5447 12.5154 10.6647 12.5154ZM10.6647 29.9918C6.90898 29.9918 3.85305 26.9358 3.85305 23.1801C3.85305 19.4244 6.90898 16.3684 10.6647 16.3684C14.4205 16.3684 17.4764 19.4244 17.4764 23.1801C17.4764 26.9358 14.4205 29.9918 10.6647 29.9918Z"
        fill="#00F222" />
    <path
        d="M14.5985 35.6918H6.73093C3.02074 35.6918 0 38.7104 0 42.4227C0 46.135 3.01867 49.1536 6.73093 49.1536H14.6006C18.3108 49.1536 21.3315 46.135 21.3315 42.4227C21.3315 38.7104 18.3128 35.6918 14.6006 35.6918H14.5985ZM14.5985 45.3006H6.73093C5.14499 45.3006 3.85305 44.0086 3.85305 42.4227C3.85305 40.8368 5.14499 39.5448 6.73093 39.5448H14.6006C16.1886 39.5448 17.4785 40.8368 17.4785 42.4227C17.4785 44.0086 16.1865 45.3006 14.6006 45.3006H14.5985Z"
        fill="#00F222" />
    <path
        d="M90.933 33.8242C91.2767 34.0767 91.6763 34.1968 92.0717 34.1968C92.6639 34.1968 93.2477 33.9235 93.6266 33.4101C94.256 32.5529 94.0717 31.3459 93.2146 30.7185L82.9495 23.1843L93.0345 15.8219C93.8937 15.1945 94.0821 13.9896 93.4548 13.1303C92.8274 12.2711 91.6224 12.0827 90.7632 12.71L81.614 19.3892V2.77205C81.614 1.70785 80.7527 0.846558 79.6886 0.846558C78.6244 0.846558 77.7631 1.70785 77.7631 2.77205V31.9173C77.7631 32.9815 78.6244 33.8428 79.6886 33.8428C80.7527 33.8428 81.614 32.9815 81.614 31.9173V26.9814L90.9351 33.8221L90.933 33.8242Z"
        fill="#00F222" />
    <path
        d="M36.6754 12.6936C30.8451 12.6936 26.1018 17.4369 26.1018 23.2672C26.1018 29.0975 30.8451 33.8408 36.6754 33.8408C39.2552 33.8408 41.7397 32.9009 43.6714 31.1948C44.4685 30.4909 44.5451 29.2735 43.8411 28.4764C43.1372 27.6793 41.9198 27.6027 41.1227 28.3066C39.8949 29.3915 38.3152 29.9878 36.6754 29.9878C32.9694 29.9878 29.9528 26.9733 29.9528 23.2651C29.9528 19.557 32.9673 16.5446 36.6754 16.5446C39.7127 16.5446 42.2863 18.5694 43.1165 21.3397H36.6754C35.6112 21.3397 34.7499 22.201 34.7499 23.2651C34.7499 24.3293 35.6112 25.1906 36.6754 25.1906H45.3236C46.3878 25.1906 47.249 24.3293 47.249 23.2651C47.249 17.4349 42.5057 12.6915 36.6754 12.6915V12.6936Z"
        fill="#00F222" />
    <path
        d="M62.506 12.6936C56.6757 12.6936 51.9324 17.4369 51.9324 23.2672C51.9324 29.0975 56.6757 33.8408 62.506 33.8408C65.0857 33.8408 67.5702 32.9009 69.5019 31.1948C70.299 30.4909 70.3757 29.2735 69.6717 28.4764C68.9678 27.6793 67.7504 27.6027 66.9532 28.3066C65.7255 29.3915 64.1458 29.9878 62.506 29.9878C58.7999 29.9878 55.7833 26.9733 55.7833 23.2651C55.7833 19.557 58.7979 16.5446 62.506 16.5446C65.5433 16.5446 68.1168 18.5694 68.9471 21.3397H62.506C61.4418 21.3397 60.5805 22.201 60.5805 23.2651C60.5805 24.3293 61.4418 25.1906 62.506 25.1906H71.1541C72.2183 25.1906 73.0796 24.3293 73.0796 23.2651C73.0796 17.4349 68.3363 12.6915 62.506 12.6915V12.6936Z"
        fill="#00F222" />
</svg>
